<?xml version="1.0" encoding="UTF-8" standalone="no"?>
<!-- Created with Inkscape (http://www.inkscape.org/) -->

<svg
   xmlns:dc="http://purl.org/dc/elements/1.1/"
   xmlns:cc="http://creativecommons.org/ns#"
   xmlns:rdf="http://www.w3.org/1999/02/22-rdf-syntax-ns#"
   xmlns:svg="http://www.w3.org/2000/svg"
   xmlns="http://www.w3.org/2000/svg"
   xmlns:xlink="http://www.w3.org/1999/xlink"
   xmlns:sodipodi="http://sodipodi.sourceforge.net/DTD/sodipodi-0.dtd"
   xmlns:inkscape="http://www.inkscape.org/namespaces/inkscape"
   width="335.65625"
   height="194.78125"
   id="svg5651"
   version="1.1"
   inkscape:version="0.48.5 r10040"
   sodipodi:docname="pitchbg.svg">
  <defs
     id="defs5653">
    <linearGradient
       inkscape:collect="always"
       id="linearGradient5434">
      <stop
         style="stop-color:#ffffff;stop-opacity:0.09"
         offset="0"
         id="stop5436" />
      <stop
         style="stop-color:#ffffff;stop-opacity:0.027"
         offset="1"
         id="stop5438" />
    </linearGradient>
    <linearGradient
       inkscape:collect="always"
       xlink:href="#linearGradient5434"
       id="linearGradient5440"
       x1="415.31454"
       y1="280.8956"
       x2="360.31454"
       y2="460.8956"
       gradientUnits="userSpaceOnUse" />
  </defs>
  <sodipodi:namedview
     id="base"
     pagecolor="#5e5e5e"
     bordercolor="#666666"
     borderopacity="1.0"
     inkscape:pageopacity="1"
     inkscape:pageshadow="2"
     inkscape:zoom="2.8"
     inkscape:cx="214.45076"
     inkscape:cy="74.30694"
     inkscape:document-units="px"
     inkscape:current-layer="layer2"
     showgrid="true"
     fit-margin-top="0"
     fit-margin-left="-0.7"
     fit-margin-right="0"
     fit-margin-bottom="0"
     inkscape:window-width="1920"
     inkscape:window-height="1058"
     inkscape:window-x="1912"
     inkscape:window-y="-8"
     inkscape:window-maximized="1"
     inkscape:snap-page="true"
     inkscape:snap-bbox="true"
     inkscape:snap-nodes="false">
    <inkscape:grid
       type="xygrid"
       id="grid5252"
       empspacing="5"
       visible="false"
       enabled="true"
       snapvisiblegridlinesonly="true"
       originx="1px"
       originy="1.0001221px" />
  </sodipodi:namedview>
  <metadata
     id="metadata5656">
    <rdf:RDF>
      <cc:Work
         rdf:about="">
        <dc:format>image/svg+xml</dc:format>
        <dc:type
           rdf:resource="http://purl.org/dc/dcmitype/StillImage" />
        <dc:title />
      </cc:Work>
    </rdf:RDF>
  </metadata>
  <g
     inkscape:label="Layer 1"
     inkscape:groupmode="layer"
     id="layer1"
     transform="translate(-209.31455,-272.11447)"
     style="display:inline">
    <path
       style="fill:#33510e;fill-opacity:0.89803922;stroke:none"
       d="m 377.1583,273.11447 c -92.13729,0 -166.84375,43.14106 -166.84375,96.375 0,53.23395 74.70646,96.40625 166.84375,96.40625 92.13729,0 166.8125,-43.1723 166.8125,-96.40625 0,-53.23394 -74.67521,-96.375 -166.8125,-96.375 z"
       id="path2997-2-0"
       inkscape:connector-curvature="0" />
    <path
       style="color:#000000;fill:url(#linearGradient5440);fill-opacity:1;stroke:none;stroke-width:2.9230001;marker:none;visibility:visible;display:inline;overflow:visible;enable-background:accumulate"
       d="m 377.68254,273.65961 c -1.67072,0 -3.34109,0.003 -5,0.0312 l 0,192.71875 c 1.65891,0.0282 3.32928,0.0312 5,0.0312 1.67072,0 3.34111,-0.003 5,-0.0312 l 0,-192.71875 c -1.65889,-0.0282 -3.32928,-0.0312 -5,-0.0312 z m -15,0.40625 c -3.36434,0.17314 -6.69608,0.40072 -10,0.6875 l 0,190.59375 c 3.30392,0.28698 6.63566,0.51424 10,0.6875 l 0,-191.96875 z m 30,0 0,191.96875 c 3.36422,-0.17326 6.69628,-0.40052 10,-0.6875 l 0,-190.59375 c -3.30372,-0.28678 -6.63578,-0.51436 -10,-0.6875 z m -50,1.71875 c -3.37096,0.41562 -6.70781,0.90621 -10,1.4375 l 0,185.65625 c 3.29219,0.53164 6.62904,1.02161 10,1.4375 l 0,-188.53125 z m 70,0 0,188.53125 c 3.37931,-0.41696 6.69994,-0.90421 10,-1.4375 l 0,-185.65625 c -3.30006,-0.53295 -6.62069,-1.02082 -10,-1.4375 z m -90,3.25 c -3.38385,0.68231 -6.71947,1.41636 -10,2.21875 l 0,177.59375 c 3.28052,0.80287 6.61615,1.53602 10,2.21875 l 0,-182.03125 z m 110,0 0,182.03125 c 3.38342,-0.68273 6.71996,-1.41588 10,-2.21875 l 0,-177.59375 c -3.28005,-0.80239 -6.61657,-1.53644 -10,-2.21875 z m -130,4.875 c -3.40495,0.99156 -6.73367,2.06799 -10,3.1875 l 0,165.875 c 3.26696,1.12041 6.59435,2.19513 10,3.1875 l 0,-172.25 z m 150,0 0,172.25 c 3.40248,-0.99173 6.73606,-2.06791 10,-3.1875 l 0,-165.875 c -3.26329,-1.11868 -6.59824,-2.19658 -10,-3.1875 z m -170,6.90625 c -3.42942,1.37448 -6.76422,2.79708 -10,4.3125 l 0,149.8125 c 3.23711,1.51689 6.56908,2.96795 10,4.34375 l 0,-158.46875 z m 190,0 0,158.46875 c 3.42524,-1.37412 6.76807,-2.82894 10,-4.34375 l 0,-149.8125 c -3.23061,-1.51334 -6.57625,-2.9397 -10,-4.3125 z m -210,9.375 c -3.4804,1.91347 -6.81559,3.95178 -10,6.03125 l 0,127.65625 c 3.18253,2.07888 6.52187,4.0869 10,6 l 0,-139.6875 z m 230,0 0,139.6875 c 3.49014,-1.92022 6.80769,-3.94404 10,-6.03125 l 0,-127.625 c -3.18983,-2.0844 -6.51286,-4.11356 -10,-6.03125 z m -250,13.21875 c -3.59832,2.85707 -6.95294,5.82396 -10,8.90625 l 0,95.4375 c 3.04706,3.08327 6.40168,6.07936 10,8.9375 l 0,-113.28125 z m 270,0.0312 0,113.21875 c 3.59963,-2.86161 6.95279,-5.85037 10,-8.9375 l 0,-95.375 c -3.04721,-3.08615 -6.40037,-6.04571 -10,-8.90625 z m -290,20.84375 c -4.70255,6.79828 -8.07867,13.97808 -10,21.4375 l 0,28.625 c 1.92133,7.46017 5.29745,14.63757 10,21.4375 l 0,-71.5 z m 310,0.0625 0,71.375 c 4.68807,-6.7933 8.0859,-13.9548 10,-21.40625 l 0,-28.5625 c -1.9141,-7.4507 -5.31193,-14.6146 -10,-21.40625 z"
       id="rect5254-1"
       inkscape:connector-curvature="0" />
  </g>
  <g
     inkscape:groupmode="layer"
     id="layer2"
     inkscape:label="lines"
     style="display:inline;opacity:0.94"
     transform="translate(1,1)">
    <path
       id="path2997-2-0-4"
       style="opacity:0.62204727000000004;fill:none;stroke:#979797;stroke-width:2;stroke-miterlimit:4;stroke-opacity:1;stroke-dasharray:none"
       d="m 166.77232,0.2097 c -92.13729,0 -166.84375,43.14106 -166.84375,96.375 0,53.23395 74.70646,96.40625 166.84375,96.40625 92.13729,0 166.8125,-43.1723 166.8125,-96.40625 0,-53.23394 -74.67521,-96.375 -166.8125,-96.375 z M 3.09271,85.84088 l 22.44502,0 0,27.14282 -21.40107,0 m 162.68291,-60.54938 -45.93397,0 0,92.56399 45.93397,0 m -96.73976,29.57871 c 48.36688,-40.87096 49.3422,-111.51361 0,-156.24522 m 260.4841,67.51963 -22.44502,0 0,27.14282 21.40107,0 m -162.68291,-60.54938 45.93397,0 0,92.56399 -45.93397,0 m 96.73976,29.57871 c -48.36688,-40.87096 -49.3422,-111.51361 0,-156.24522"
       inkscape:connector-curvature="0" />
  </g>
</svg>
